<?xml version="1.0" encoding="utf-8" standalone="no"?>
<!DOCTYPE svg PUBLIC "-//W3C//DTD SVG 1.1//EN"
  "http://www.w3.org/Graphics/SVG/1.1/DTD/svg11.dtd">
<svg xmlns:xlink="http://www.w3.org/1999/xlink" width="729.78pt" height="341.081213pt" viewBox="0 0 729.78 341.081213" xmlns="http://www.w3.org/2000/svg" version="1.1">
 <metadata>
  <rdf:RDF xmlns:dc="http://purl.org/dc/elements/1.1/" xmlns:cc="http://creativecommons.org/ns#" xmlns:rdf="http://www.w3.org/1999/02/22-rdf-syntax-ns#">
   <cc:Work>
    <dc:type rdf:resource="http://purl.org/dc/dcmitype/StillImage"/>
    <dc:date>2026-08-27</dc:date>
    <dc:format>image/svg+xml</dc:format>
    <dc:creator>
     <cc:Agent>
      <dc:title>SolvAI 1.0.0</dc:title>
     </cc:Agent>
    </dc:creator>
   </cc:Work>
  </rdf:RDF>
 </metadata>
 <defs>
  <style type="text/css">*{stroke-linejoin: round; stroke-linecap: butt}</style>
 </defs>
 <g id="figure_1">
  <g id="patch_1">
   <path d="M 0 341.081213 
L 729.78 341.081213 
L 729.78 0 
L 0 0 
z
" style="fill: #ffffff"/>
  </g>
  <g id="axes_1">
   <g id="patch_2">
    <path d="M 105.52 305.88051 
L 407.963523 305.88051 
L 407.963523 26.724521 
L 105.52 26.724521 
z
" style="fill: #ffffff"/>
   </g>
   <g id="patch_3">
    <path d="M 105.52 39.413429 
L 217.649817 39.413429 
L 217.649817 69.269685 
L 105.52 69.269685 
z
" clip-path="url(#pf010e8466f)" style="fill: #e69f00"/>
   </g>
   <g id="patch_4">
    <path d="M 105.52 76.733749 
L 274.574488 76.733749 
L 274.574488 106.590004 
L 105.52 106.590004 
z
" clip-path="url(#pf010e8466f)" style="fill: #e69f00"/>
   </g>
   <g id="patch_5">
    <path d="M 105.52 114.054068 
L 301.340913 114.054068 
L 301.340913 143.910324 
L 105.52 143.910324 
z
" clip-path="url(#pf010e8466f)" style="fill: #e69f00"/>
   </g>
   <g id="patch_6">
    <path d="M 105.52 151.374387 
L 323.412259 151.374387 
L 323.412259 181.230643 
L 105.52 181.230643 
z
" clip-path="url(#pf010e8466f)" style="fill: #e69f00"/>
   </g>
   <g id="patch_7">
    <path d="M 105.52 188.694707 
L 325.694835 188.694707 
L 325.694835 218.550962 
L 105.52 218.550962 
z
" clip-path="url(#pf010e8466f)" style="fill: #e69f00"/>
   </g>
   <g id="patch_8">
    <path d="M 105.52 226.015026 
L 353.382195 226.015026 
L 353.382195 255.871282 
L 105.52 255.871282 
z
" clip-path="url(#pf010e8466f)" style="fill: #e69f00"/>
   </g>
   <g id="patch_9">
    <path d="M 105.52 263.335345 
L 393.56145 263.335345 
L 393.56145 293.191601 
L 105.52 293.191601 
z
" clip-path="url(#pf010e8466f)" style="fill: #e69f00"/>
   </g>
   <g id="matplotlib.axis_1">
    <g id="xtick_1">
     <g id="line2d_1">
      <defs>
       <path id="md952baca1e" d="M 0 0 
L 0 3.5 
" style="stroke: #000000; stroke-width: 0.8"/>
      </defs>
      <g>
       <use xlink:href="#md952baca1e" x="105.52" y="305.88051" style="stroke: #000000; stroke-width: 0.8"/>
      </g>
     </g>
     <g id="text_1">
      <text style="font-size: 8px; font-family: 'DejaVu Sans'; text-anchor: middle" x="105.52" y="318.958635" transform="rotate(-0 105.52 318.958635)">0.000</text>
     </g>
    </g>
    <g id="xtick_2">
     <g id="line2d_2">
      <g>
       <use xlink:href="#md952baca1e" x="166.629532" y="305.88051" style="stroke: #000000; stroke-width: 0.8"/>
      </g>
     </g>
     <g id="text_2">
      <text style="font-size: 8px; font-family: 'DejaVu Sans'; text-anchor: middle" x="166.629532" y="318.958635" transform="rotate(-0 166.629532 318.958635)">0.005</text>
     </g>
    </g>
    <g id="xtick_3">
     <g id="line2d_3">
      <g>
       <use xlink:href="#md952baca1e" x="227.739065" y="305.88051" style="stroke: #000000; stroke-width: 0.8"/>
      </g>
     </g>
     <g id="text_3">
      <text style="font-size: 8px; font-family: 'DejaVu Sans'; text-anchor: middle" x="227.739065" y="318.958635" transform="rotate(-0 227.739065 318.958635)">0.010</text>
     </g>
    </g>
    <g id="xtick_4">
     <g id="line2d_4">
      <g>
       <use xlink:href="#md952baca1e" x="288.848597" y="305.88051" style="stroke: #000000; stroke-width: 0.8"/>
      </g>
     </g>
     <g id="text_4">
      <text style="font-size: 8px; font-family: 'DejaVu Sans'; text-anchor: middle" x="288.848597" y="318.958635" transform="rotate(-0 288.848597 318.958635)">0.015</text>
     </g>
    </g>
    <g id="xtick_5">
     <g id="line2d_5">
      <g>
       <use xlink:href="#md952baca1e" x="349.958129" y="305.88051" style="stroke: #000000; stroke-width: 0.8"/>
      </g>
     </g>
     <g id="text_5">
      <text style="font-size: 8px; font-family: 'DejaVu Sans'; text-anchor: middle" x="349.958129" y="318.958635" transform="rotate(-0 349.958129 318.958635)">0.020</text>
     </g>
    </g>
    <g id="text_6">
     <text style="font-size: 9px; font-family: 'DejaVu Sans'; text-anchor: middle" x="256.741761" y="331.719103" transform="rotate(-0 256.741761 331.719103)">Change from matched base MAE (kcal/mol)</text>
    </g>
   </g>
   <g id="matplotlib.axis_2">
    <g id="ytick_1">
     <g id="line2d_6">
      <defs>
       <path id="m9ef6b1ae08" d="M 0 0 
L -3.5 0 
" style="stroke: #000000; stroke-width: 0.8"/>
      </defs>
      <g>
       <use xlink:href="#m9ef6b1ae08" x="105.52" y="54.341557" style="stroke: #000000; stroke-width: 0.8"/>
      </g>
     </g>
     <g id="text_7">
      <text style="font-size: 8px; font-family: 'DejaVu Sans'; text-anchor: end" x="98.52" y="57.380932" transform="rotate(-0 98.52 57.380932)">MLFF hierarchy</text>
     </g>
    </g>
    <g id="ytick_2">
     <g id="line2d_7">
      <g>
       <use xlink:href="#m9ef6b1ae08" x="105.52" y="91.661876" style="stroke: #000000; stroke-width: 0.8"/>
      </g>
     </g>
     <g id="text_8">
      <text style="font-size: 8px; font-family: 'DejaVu Sans'; text-anchor: end" x="98.52" y="94.701251" transform="rotate(-0 98.52 94.701251)">OpenFE diagnostics</text>
     </g>
    </g>
    <g id="ytick_3">
     <g id="line2d_8">
      <g>
       <use xlink:href="#m9ef6b1ae08" x="105.52" y="128.982196" style="stroke: #000000; stroke-width: 0.8"/>
      </g>
     </g>
     <g id="text_9">
      <text style="font-size: 8px; font-family: 'DejaVu Sans'; text-anchor: end" x="98.52" y="132.021571" transform="rotate(-0 98.52 132.021571)">GNNIS force</text>
     </g>
    </g>
    <g id="ytick_4">
     <g id="line2d_9">
      <g>
       <use xlink:href="#m9ef6b1ae08" x="105.52" y="166.302515" style="stroke: #000000; stroke-width: 0.8"/>
      </g>
     </g>
     <g id="text_10">
      <text style="font-size: 8px; font-family: 'DejaVu Sans'; text-anchor: end" x="98.52" y="169.34189" transform="rotate(-0 98.52 169.34189)">Lambda-aware implicit</text>
     </g>
    </g>
    <g id="ytick_5">
     <g id="line2d_10">
      <g>
       <use xlink:href="#m9ef6b1ae08" x="105.52" y="203.622835" style="stroke: #000000; stroke-width: 0.8"/>
      </g>
     </g>
     <g id="text_11">
      <text style="font-size: 8px; font-family: 'DejaVu Sans'; text-anchor: end" x="98.52" y="206.661897" transform="rotate(-0 98.52 206.661897)">DES370K/SAPT</text>
     </g>
    </g>
    <g id="ytick_6">
     <g id="line2d_11">
      <g>
       <use xlink:href="#m9ef6b1ae08" x="105.52" y="240.943154" style="stroke: #000000; stroke-width: 0.8"/>
      </g>
     </g>
     <g id="text_12">
      <text style="font-size: 8px; font-family: 'DejaVu Sans'; text-anchor: end" x="98.52" y="243.982529" transform="rotate(-0 98.52 243.982529)">ConfSolv graph latent</text>
     </g>
    </g>
    <g id="ytick_7">
     <g id="line2d_12">
      <g>
       <use xlink:href="#m9ef6b1ae08" x="105.52" y="278.263473" style="stroke: #000000; stroke-width: 0.8"/>
      </g>
     </g>
     <g id="text_13">
      <text style="font-size: 8px; font-family: 'DejaVu Sans'; text-anchor: end" x="98.52" y="281.302848" transform="rotate(-0 98.52 281.302848)">ConfSolv FFN latent</text>
     </g>
    </g>
   </g>
   <g id="line2d_13">
    <path d="M 105.52 305.88051 
L 105.52 26.724521 
" clip-path="url(#pf010e8466f)" style="fill: none; stroke: #17212b; stroke-linecap: square"/>
   </g>
   <g id="patch_10">
    <path d="M 105.52 305.88051 
L 105.52 26.724521 
" style="fill: none; stroke: #000000; stroke-width: 0.8; stroke-linejoin: miter; stroke-linecap: square"/>
   </g>
   <g id="patch_11">
    <path d="M 105.52 305.88051 
L 407.963523 305.88051 
" style="fill: none; stroke: #000000; stroke-width: 0.8; stroke-linejoin: miter; stroke-linecap: square"/>
   </g>
   <g id="text_14">
    <text style="font-weight: 700; font-size: 11px; font-family: 'DejaVu Sans'; text-anchor: start" x="81.324518" y="15.558281" transform="rotate(-0 81.324518 15.558281)">a</text>
   </g>
   <g id="text_15">
    <text style="font-size: 10px; font-family: 'DejaVu Sans'; text-anchor: middle" x="256.741761" y="20.724521" transform="rotate(-0 256.741761 20.724521)">Additional response representations</text>
   </g>
  </g>
  <g id="axes_2">
   <g id="patch_12">
    <path d="M 459.585632 305.88051 
L 722.58 305.88051 
L 722.58 26.724521 
L 459.585632 26.724521 
z
" style="fill: #ffffff"/>
   </g>
   <g id="matplotlib.axis_3">
    <g id="xtick_6">
     <g id="line2d_14">
      <g>
       <use xlink:href="#md952baca1e" x="471.539921" y="305.88051" style="stroke: #000000; stroke-width: 0.8"/>
      </g>
     </g>
     <g id="text_16">
      <text style="font-size: 8px; font-family: 'DejaVu Sans'; text-anchor: middle" x="471.539921" y="318.958635" transform="rotate(-0 471.539921 318.958635)">0.1</text>
     </g>
    </g>
    <g id="xtick_7">
     <g id="line2d_15">
      <g>
       <use xlink:href="#md952baca1e" x="591.082819" y="305.88051" style="stroke: #000000; stroke-width: 0.8"/>
      </g>
     </g>
     <g id="text_17">
      <text style="font-size: 8px; font-family: 'DejaVu Sans'; text-anchor: middle" x="591.082819" y="318.958635" transform="rotate(-0 591.082819 318.958635)">0.5</text>
     </g>
    </g>
    <g id="xtick_8">
     <g id="line2d_16">
      <g>
       <use xlink:href="#md952baca1e" x="710.625718" y="305.88051" style="stroke: #000000; stroke-width: 0.8"/>
      </g>
     </g>
     <g id="text_18">
      <text style="font-size: 8px; font-family: 'DejaVu Sans'; text-anchor: middle" x="710.625718" y="318.958635" transform="rotate(-0 710.625718 318.958635)">0.9</text>
     </g>
    </g>
    <g id="text_19">
     <text style="font-size: 9px; font-family: 'DejaVu Sans'; text-anchor: middle" x="591.082816" y="331.719103" transform="rotate(-0 591.082816 331.719103)">Alchemical coupling λ</text>
    </g>
   </g>
   <g id="matplotlib.axis_4">
    <g id="ytick_8">
     <g id="line2d_17">
      <g>
       <use xlink:href="#m9ef6b1ae08" x="459.585632" y="303.344413" style="stroke: #000000; stroke-width: 0.8"/>
      </g>
     </g>
     <g id="text_20">
      <text style="font-size: 8px; font-family: 'DejaVu Sans'; text-anchor: end" x="452.585632" y="306.383475" transform="rotate(-0 452.585632 306.383475)">0</text>
     </g>
    </g>
    <g id="ytick_9">
     <g id="line2d_18">
      <g>
       <use xlink:href="#m9ef6b1ae08" x="459.585632" y="252.580355" style="stroke: #000000; stroke-width: 0.8"/>
      </g>
     </g>
     <g id="text_21">
      <text style="font-size: 8px; font-family: 'DejaVu Sans'; text-anchor: end" x="452.585632" y="255.619417" transform="rotate(-0 452.585632 255.619417)">1</text>
     </g>
    </g>
    <g id="ytick_10">
     <g id="line2d_19">
      <g>
       <use xlink:href="#m9ef6b1ae08" x="459.585632" y="201.816297" style="stroke: #000000; stroke-width: 0.8"/>
      </g>
     </g>
     <g id="text_22">
      <text style="font-size: 8px; font-family: 'DejaVu Sans'; text-anchor: end" x="452.585632" y="204.855359" transform="rotate(-0 452.585632 204.855359)">2</text>
     </g>
    </g>
    <g id="ytick_11">
     <g id="line2d_20">
      <g>
       <use xlink:href="#m9ef6b1ae08" x="459.585632" y="151.052239" style="stroke: #000000; stroke-width: 0.8"/>
      </g>
     </g>
     <g id="text_23">
      <text style="font-size: 8px; font-family: 'DejaVu Sans'; text-anchor: end" x="452.585632" y="154.091301" transform="rotate(-0 452.585632 154.091301)">3</text>
     </g>
    </g>
    <g id="ytick_12">
     <g id="line2d_21">
      <g>
       <use xlink:href="#m9ef6b1ae08" x="459.585632" y="100.288181" style="stroke: #000000; stroke-width: 0.8"/>
      </g>
     </g>
     <g id="text_24">
      <text style="font-size: 8px; font-family: 'DejaVu Sans'; text-anchor: end" x="452.585632" y="103.327244" transform="rotate(-0 452.585632 103.327244)">4</text>
     </g>
    </g>
    <g id="ytick_13">
     <g id="line2d_22">
      <g>
       <use xlink:href="#m9ef6b1ae08" x="459.585632" y="49.524123" style="stroke: #000000; stroke-width: 0.8"/>
      </g>
     </g>
     <g id="text_25">
      <text style="font-size: 8px; font-family: 'DejaVu Sans'; text-anchor: end" x="452.585632" y="52.563186" transform="rotate(-0 452.585632 52.563186)">5</text>
     </g>
    </g>
    <g id="text_26">
     <text style="font-size: 9px; font-family: 'DejaVu Sans'; text-anchor: middle" x="441.333523" y="166.302515" transform="rotate(-90 441.333523 166.302515)">Response-head MAE (kcal/mol)</text>
    </g>
   </g>
   <g id="line2d_23">
    <path d="M 471.539922 122.384029 
L 591.082819 184.03854 
L 710.625711 126.622747 
" clip-path="url(#paaa8fb1f9f)" style="fill: none; stroke: #1f77b4; stroke-width: 1.8; stroke-linecap: square"/>
    <defs>
     <path id="md22a3cb2a5" d="M 0 3 
C 0.795609 3 1.55874 2.683901 2.12132 2.12132 
C 2.683901 1.55874 3 0.795609 3 0 
C 3 -0.795609 2.683901 -1.55874 2.12132 -2.12132 
C 1.55874 -2.683901 0.795609 -3 0 -3 
C -0.795609 -3 -1.55874 -2.683901 -2.12132 -2.12132 
C -2.683901 -1.55874 -3 -0.795609 -3 0 
C -3 0.795609 -2.683901 1.55874 -2.12132 2.12132 
C -1.55874 2.683901 -0.795609 3 0 3 
z
" style="stroke: #1f77b4"/>
    </defs>
    <g clip-path="url(#paaa8fb1f9f)">
     <use xlink:href="#md22a3cb2a5" x="471.539922" y="122.384029" style="fill: #1f77b4; stroke: #1f77b4"/>
     <use xlink:href="#md22a3cb2a5" x="591.082819" y="184.03854" style="fill: #1f77b4; stroke: #1f77b4"/>
     <use xlink:href="#md22a3cb2a5" x="710.625711" y="126.622747" style="fill: #1f77b4; stroke: #1f77b4"/>
    </g>
   </g>
   <g id="line2d_24">
    <path d="M 471.539922 94.263358 
L 591.082819 98.847601 
L 710.625711 104.517447 
" clip-path="url(#paaa8fb1f9f)" style="fill: none; stroke: #ff7f0e; stroke-width: 1.8; stroke-linecap: square"/>
    <defs>
     <path id="m906bfb86d0" d="M 0 3 
C 0.795609 3 1.55874 2.683901 2.12132 2.12132 
C 2.683901 1.55874 3 0.795609 3 0 
C 3 -0.795609 2.683901 -1.55874 2.12132 -2.12132 
C 1.55874 -2.683901 0.795609 -3 0 -3 
C -0.795609 -3 -1.55874 -2.683901 -2.12132 -2.12132 
C -2.683901 -1.55874 -3 -0.795609 -3 0 
C -3 0.795609 -2.683901 1.55874 -2.12132 2.12132 
C -1.55874 2.683901 -0.795609 3 0 3 
z
" style="stroke: #ff7f0e"/>
    </defs>
    <g clip-path="url(#paaa8fb1f9f)">
     <use xlink:href="#m906bfb86d0" x="471.539922" y="94.263358" style="fill: #ff7f0e; stroke: #ff7f0e"/>
     <use xlink:href="#m906bfb86d0" x="591.082819" y="98.847601" style="fill: #ff7f0e; stroke: #ff7f0e"/>
     <use xlink:href="#m906bfb86d0" x="710.625711" y="104.517447" style="fill: #ff7f0e; stroke: #ff7f0e"/>
    </g>
   </g>
   <g id="line2d_25">
    <path d="M 471.539922 39.413429 
L 591.082819 124.468193 
L 710.625711 238.635723 
" clip-path="url(#paaa8fb1f9f)" style="fill: none; stroke: #2ca02c; stroke-width: 1.8; stroke-linecap: square"/>
    <defs>
     <path id="m3fb0331465" d="M 0 3 
C 0.795609 3 1.55874 2.683901 2.12132 2.12132 
C 2.683901 1.55874 3 0.795609 3 0 
C 3 -0.795609 2.683901 -1.55874 2.12132 -2.12132 
C 1.55874 -2.683901 0.795609 -3 0 -3 
C -0.795609 -3 -1.55874 -2.683901 -2.12132 -2.12132 
C -2.683901 -1.55874 -3 -0.795609 -3 0 
C -3 0.795609 -2.683901 1.55874 -2.12132 2.12132 
C -1.55874 2.683901 -0.795609 3 0 3 
z
" style="stroke: #2ca02c"/>
    </defs>
    <g clip-path="url(#paaa8fb1f9f)">
     <use xlink:href="#m3fb0331465" x="471.539922" y="39.413429" style="fill: #2ca02c; stroke: #2ca02c"/>
     <use xlink:href="#m3fb0331465" x="591.082819" y="124.468193" style="fill: #2ca02c; stroke: #2ca02c"/>
     <use xlink:href="#m3fb0331465" x="710.625711" y="238.635723" style="fill: #2ca02c; stroke: #2ca02c"/>
    </g>
   </g>
   <g id="line2d_26">
    <path d="M 459.585632 293.191601 
L 722.58 293.191601 
" clip-path="url(#paaa8fb1f9f)" style="fill: none; stroke-dasharray: 3.7,1.6; stroke-dashoffset: 0; stroke: #17212b"/>
   </g>
   <g id="patch_13">
    <path d="M 459.585632 305.88051 
L 459.585632 26.724521 
" style="fill: none; stroke: #000000; stroke-width: 0.8; stroke-linejoin: miter; stroke-linecap: square"/>
   </g>
   <g id="patch_14">
    <path d="M 459.585632 305.88051 
L 722.58 305.88051 
" style="fill: none; stroke: #000000; stroke-width: 0.8; stroke-linejoin: miter; stroke-linecap: square"/>
   </g>
   <g id="text_27">
    <text style="font-weight: 700; font-size: 11px; font-family: 'DejaVu Sans'; text-anchor: start" x="438.546083" y="15.558281" transform="rotate(-0 438.546083 15.558281)">b</text>
   </g>
   <g id="text_28">
    <text style="font-size: 10px; font-family: 'DejaVu Sans'; text-anchor: middle" x="591.082816" y="20.724521" transform="rotate(-0 591.082816 20.724521)">Structure → PIMD2 response remains limiting</text>
   </g>
   <g id="legend_1">
    <g id="line2d_27">
     <path d="M 636.385078 36.548349 
L 643.885078 36.548349 
L 651.385078 36.548349 
" style="fill: none; stroke: #1f77b4; stroke-width: 1.8; stroke-linecap: square"/>
     <g>
      <use xlink:href="#md22a3cb2a5" x="643.885078" y="36.548349" style="fill: #1f77b4; stroke: #1f77b4"/>
     </g>
    </g>
    <g id="text_29">
     <text style="font-size: 7.5px; font-family: 'DejaVu Sans'; text-anchor: start" x="657.385078" y="39.173349" transform="rotate(-0 657.385078 39.173349)">total</text>
    </g>
    <g id="line2d_28">
     <path d="M 636.385078 47.798935 
L 643.885078 47.798935 
L 651.385078 47.798935 
" style="fill: none; stroke: #ff7f0e; stroke-width: 1.8; stroke-linecap: square"/>
     <g>
      <use xlink:href="#m906bfb86d0" x="643.885078" y="47.798935" style="fill: #ff7f0e; stroke: #ff7f0e"/>
     </g>
    </g>
    <g id="text_30">
     <text style="font-size: 7.5px; font-family: 'DejaVu Sans'; text-anchor: start" x="657.385078" y="50.423935" transform="rotate(-0 657.385078 50.423935)">electrostatic</text>
    </g>
    <g id="line2d_29">
     <path d="M 636.385078 59.049521 
L 643.885078 59.049521 
L 651.385078 59.049521 
" style="fill: none; stroke: #2ca02c; stroke-width: 1.8; stroke-linecap: square"/>
     <g>
      <use xlink:href="#m3fb0331465" x="643.885078" y="59.049521" style="fill: #2ca02c; stroke: #2ca02c"/>
     </g>
    </g>
    <g id="text_31">
     <text style="font-size: 7.5px; font-family: 'DejaVu Sans'; text-anchor: start" x="657.385078" y="61.674521" transform="rotate(-0 657.385078 61.674521)">vdW</text>
    </g>
    <g id="line2d_30">
     <path d="M 636.385078 70.300107 
L 643.885078 70.300107 
L 651.385078 70.300107 
" style="fill: none; stroke-dasharray: 3.7,1.6; stroke-dashoffset: 0; stroke: #17212b"/>
    </g>
    <g id="text_32">
     <text style="font-size: 7.5px; font-family: 'DejaVu Sans'; text-anchor: start" x="657.385078" y="72.925107" transform="rotate(-0 657.385078 72.925107)">endpoint target</text>
    </g>
   </g>
  </g>
 </g>
 <defs>
  <clipPath id="pf010e8466f">
   <rect x="105.52" y="26.724521" width="302.443523" height="279.155989"/>
  </clipPath>
  <clipPath id="paaa8fb1f9f">
   <rect x="459.585632" y="26.724521" width="262.994368" height="279.155989"/>
  </clipPath>
 </defs>
</svg>
